<svg fill="none" height="50" viewBox="0 0 366 50" width="366" xmlns="http://www.w3.org/2000/svg"><rect fill="#fff" height="50" rx="10" width="366"/><rect height="49" rx="9.5" stroke="#a0a2b3" stroke-opacity=".2" width="365" x=".5" y=".5"/><path d="m334.599 32.3065c4.749 0 8.599-3.8742 8.599-8.6533 0-4.779-3.85-8.6532-8.599-8.6532s-8.599 3.8742-8.599 8.6532c0 4.7791 3.85 8.6533 8.599 8.6533z" fill="#777a95"/><g fill="#a0a2b3"><path d="m344.675 34.9553c-.335-.0108-.652-.1483-.89-.3848l-2.036-2.3803c-.437-.3993-.472-1.0779-.08-1.5213.183-.1858.433-.2902.693-.2902.261 0 .51.1044.694.2902l2.561 2.0492c.369.3776.483.9382.291 1.4311-.192.493-.654.8262-1.18.8508z" opacity=".4"/><path d="m23.9 29.156c-.832 0-1.547-.195-2.145-.585-.5893-.3987-1.001-.9447-1.235-1.638l.78-.455c.1647.572.468 1.014.91 1.326.4507.312 1.0183.468 1.703.468.6673 0 1.1917-.1473 1.573-.442s.572-.6933.572-1.196c0-.4767-.1733-.8363-.52-1.079-.338-.2427-.91-.494-1.716-.754-.962-.3207-1.586-.572-1.872-.754-.6933-.416-1.04-1.0183-1.04-1.807 0-.7713.2687-1.378.806-1.82.5287-.4507 1.1917-.676 1.989-.676.6847 0 1.2913.182 1.82.546.5287.3553.923.8277 1.183 1.417l-.767.429c-.416-1.0053-1.1613-1.508-2.236-1.508-.572 0-1.0313.143-1.378.429-.338.2773-.507.6587-.507 1.144 0 .4593.156.7973.468 1.014.3207.2253.8363.455 1.547.689l.702.247c.1473.0433.3553.1213.624.234.2947.1127.4983.208.611.286.4593.2773.7497.533.871.767.2167.3467.325.7367.325 1.17 0 .7713-.2817 1.391-.845 1.859-.5633.4593-1.3043.689-2.223.689zm7.6302-6.812c.9707 0 1.7463.3423 2.327 1.027.598.676.897 1.4777.897 2.405 0 .0433-.0087.1777-.026.403h-5.707c.0867.65.364 1.17.832 1.56s1.053.585 1.755.585c.988 0 1.6857-.3683 2.093-1.105l.754.442c-.286.468-.6803.8363-1.183 1.105-.494.26-1.053.39-1.677.39-1.0227 0-1.8547-.3207-2.496-.962s-.962-1.456-.962-2.444c0-.9793.3163-1.7897.949-2.431.6327-.65 1.4473-.975 2.444-.975zm0 .832c-.676 0-1.2437.1993-1.703.598-.4507.3987-.7193.923-.806 1.573h4.849c-.0953-.6933-.3597-1.2263-.793-1.599-.4507-.3813-.9663-.572-1.547-.572zm10.1788.598v-1.274h.858v6.5h-.858v-1.274c-.598.9533-1.4733 1.43-2.626 1.43-.9273 0-1.7203-.3293-2.379-.988-.65-.6587-.975-1.4647-.975-2.418s.325-1.7593.975-2.418c.6587-.6587 1.4517-.988 2.379-.988 1.1527 0 2.028.4767 2.626 1.43zm-4.381 3.809c.494.494 1.1007.741 1.82.741s1.326-.247 1.82-.741c.494-.5113.741-1.1223.741-1.833 0-.7193-.247-1.326-.741-1.82-.494-.5027-1.1007-.754-1.82-.754s-1.326.2513-1.82.754c-.494.494-.741 1.1007-.741 1.82 0 .7107.247 1.3217.741 1.833zm7.9136-5.083v1.079c.3987-.7887 1.0834-1.183 2.054-1.183v.832c-.624 0-1.1223.182-1.495.546-.3726.3553-.559.8927-.559 1.612v3.614h-.858v-6.5zm5.8654 6.656c-.9794 0-1.794-.325-2.444-.975-.65-.6673-.975-1.4777-.975-2.431 0-.962.325-1.768.975-2.418.65-.6587 1.4646-.988 2.444-.988.6413 0 1.2176.156 1.729.468.5113.3033.884.715 1.118 1.235l-.702.403c-.1734-.39-.455-.6977-.845-.923-.3814-.234-.8147-.351-1.3-.351-.7194 0-1.326.2513-1.82.754-.494.494-.741 1.1007-.741 1.82 0 .7107.247 1.3217.741 1.833.494.494 1.1006.741 1.82.741.4766 0 .9056-.1127 1.287-.338.39-.2253.6933-.5373.91-.936l.715.416c-.2687.52-.663.9317-1.183 1.235s-1.0964.455-1.729.455zm7.1858-6.812c.78 0 1.3997.2427 1.859.728.4594.4767.689 1.1223.689 1.937v3.991h-.858v-3.991c0-.5807-.156-1.0313-.468-1.352-.3033-.3207-.7366-.481-1.3-.481-.65 0-1.1656.2037-1.547.611-.3726.4073-.559 1.0097-.559 1.807v3.406h-.858v-9.1h.858v3.614c.4854-.78 1.2134-1.17 2.184-1.17zm13.047 1.43v-3.874h.858v9.1h-.858v-1.274c-.598.9533-1.4733 1.43-2.626 1.43-.9273 0-1.7203-.3293-2.379-.988-.65-.6587-.975-1.4647-.975-2.418s.325-1.7593.975-2.418c.6587-.6587 1.4517-.988 2.379-.988 1.1527 0 2.028.4767 2.626 1.43zm-4.381 3.809c.494.494 1.1007.741 1.82.741.7194 0 1.326-.247 1.82-.741.494-.5113.741-1.1223.741-1.833 0-.7193-.247-1.326-.741-1.82-.494-.5027-1.1006-.754-1.82-.754-.7193 0-1.326.2513-1.82.754-.494.494-.741 1.1007-.741 1.82 0 .7107.247 1.3217.741 1.833zm12.5027.598c-.6673.65-1.4733.975-2.418.975-.962 0-1.7723-.325-2.431-.975-.6587-.6587-.988-1.469-.988-2.431s.3293-1.768.988-2.418c.6587-.6587 1.469-.988 2.431-.988.9533 0 1.7593.3293 2.418.988.6673.65 1.001 1.456 1.001 2.418 0 .9533-.3337 1.7637-1.001 2.431zm-4.238-.598c.494.494 1.1007.741 1.82.741s1.326-.247 1.82-.741c.494-.5113.741-1.1223.741-1.833 0-.7193-.247-1.326-.741-1.82-.494-.5027-1.1007-.754-1.82-.754s-1.326.2513-1.82.754c-.494.494-.741 1.1007-.741 1.82 0 .7107.247 1.3217.741 1.833zm9.7038 1.573c-.9794 0-1.794-.325-2.444-.975-.65-.6673-.975-1.4777-.975-2.431 0-.962.325-1.768.975-2.418.65-.6587 1.4646-.988 2.444-.988.6413 0 1.2176.156 1.729.468.5113.3033.884.715 1.118 1.235l-.702.403c-.1734-.39-.455-.6977-.845-.923-.3814-.234-.8147-.351-1.3-.351-.7194 0-1.326.2513-1.82.754-.494.494-.741 1.1007-.741 1.82 0 .7107.247 1.3217.741 1.833.494.494 1.1006.741 1.82.741.4766 0 .9056-.1127 1.287-.338.39-.2253.6933-.5373.91-.936l.715.416c-.2687.52-.663.9317-1.183 1.235s-1.0964.455-1.729.455zm7.5888-6.656v.832h-1.872v3.939c0 .3553.0694.611.208.767.1387.1473.3467.2253.624.234.2774 0 .624-.0087 1.04-.026v.754c-.9273.1387-1.6163.0737-2.067-.195-.442-.2773-.663-.7887-.663-1.534v-3.939h-1.365v-.832h1.365v-1.56l.858-.26v1.82zm6.4835 5.681c-.6674.65-1.4734.975-2.418.975-.962 0-1.7724-.325-2.431-.975-.6587-.6587-.988-1.469-.988-2.431s.3293-1.768.988-2.418c.6586-.6587 1.469-.988 2.431-.988.9533 0 1.7593.3293 2.418.988.6673.65 1.0014 1.456 1.0014 2.418 0 .9533-.3341 1.7637-1.0014 2.431zm-4.238-.598c.494.494 1.1006.741 1.82.741.7193 0 1.326-.247 1.82-.741.494-.5113.741-1.1223.741-1.833 0-.7193-.247-1.326-.741-1.82-.494-.5027-1.1007-.754-1.82-.754-.7194 0-1.326.2513-1.82.754-.494.494-.741 1.1007-.741 1.82 0 .7107.247 1.3217.741 1.833zm7.5324-5.083v1.079c.399-.7887 1.084-1.183 2.054-1.183v.832c-.624 0-1.122.182-1.495.546-.372.3553-.559.8927-.559 1.612v3.614h-.858v-6.5zm2.706 5.395h1.04l-.78 2.925h-.78zm9.012 1.261c-.979 0-1.794-.325-2.444-.975-.65-.6673-.975-1.4777-.975-2.431 0-.962.325-1.768.975-2.418.65-.6587 1.465-.988 2.444-.988.642 0 1.218.156 1.729.468.512.3033.884.715 1.118 1.235l-.702.403c-.173-.39-.455-.6977-.845-.923-.381-.234-.814-.351-1.3-.351-.719 0-1.326.2513-1.82.754-.494.494-.741 1.1007-.741 1.82 0 .7107.247 1.3217.741 1.833.494.494 1.101.741 1.82.741.477 0 .906-.1127 1.287-.338.39-.2253.694-.5373.91-.936l.715.416c-.268.52-.663.9317-1.183 1.235s-1.096.455-1.729.455zm9.671-5.382v-1.274h.858v6.5h-.858v-1.274c-.598.9533-1.474 1.43-2.626 1.43-.928 0-1.721-.3293-2.379-.988-.65-.6587-.975-1.4647-.975-2.418s.325-1.7593.975-2.418c.658-.6587 1.451-.988 2.379-.988 1.152 0 2.028.4767 2.626 1.43zm-4.381 3.809c.494.494 1.1.741 1.82.741.719 0 1.326-.247 1.82-.741.494-.5113.741-1.1223.741-1.833 0-.7193-.247-1.326-.741-1.82-.494-.5027-1.101-.754-1.82-.754-.72 0-1.326.2513-1.82.754-.494.494-.741 1.1007-.741 1.82 0 .7107.247 1.3217.741 1.833zm10.5-5.083v.832h-1.872v3.939c0 .3553.07.611.208.767.139.1473.347.2253.624.234.278 0 .624-.0087 1.04-.026v.754c-.927.1387-1.616.0737-2.067-.195-.442-.2773-.663-.7887-.663-1.534v-3.939h-1.365v-.832h1.365v-1.56l.858-.26v1.82zm6.627 1.274v-1.274h.858v6.5h-.858v-1.274c-.598.9533-1.474 1.43-2.626 1.43-.928 0-1.721-.3293-2.379-.988-.65-.6587-.975-1.4647-.975-2.418s.325-1.7593.975-2.418c.658-.6587 1.451-.988 2.379-.988 1.152 0 2.028.4767 2.626 1.43zm-4.381 3.809c.494.494 1.1.741 1.82.741.719 0 1.326-.247 1.82-.741.494-.5113.741-1.1223.741-1.833 0-.7193-.247-1.326-.741-1.82-.494-.5027-1.101-.754-1.82-.754-.72 0-1.326.2513-1.82.754-.494.494-.741 1.1007-.741 1.82 0 .7107.247 1.3217.741 1.833zm12.645-3.809v-1.274h.858v6.24c0 .936-.32 1.6727-.962 2.21-.641.5373-1.408.806-2.301.806-1.516 0-2.543-.5287-3.081-1.586l.754-.429c.39.7887 1.166 1.183 2.327 1.183.746 0 1.331-.195 1.755-.585.434-.39.65-.923.65-1.599v-1.014c-.598.9533-1.473 1.43-2.626 1.43-.927 0-1.72-.3293-2.379-.988-.65-.6587-.975-1.4647-.975-2.418s.325-1.7593.975-2.418c.659-.6587 1.452-.988 2.379-.988 1.153 0 2.028.4767 2.626 1.43zm-4.381 3.809c.494.494 1.101.741 1.82.741.72 0 1.326-.247 1.82-.741.494-.5113.741-1.1223.741-1.833 0-.7193-.247-1.326-.741-1.82-.494-.5027-1.1-.754-1.82-.754-.719 0-1.326.2513-1.82.754-.494.494-.741 1.1007-.741 1.82 0 .7107.247 1.3217.741 1.833zm12.503.598c-.667.65-1.473.975-2.418.975-.962 0-1.772-.325-2.431-.975-.659-.6587-.988-1.469-.988-2.431s.329-1.768.988-2.418c.659-.6587 1.469-.988 2.431-.988.953 0 1.759.3293 2.418.988.667.65 1.001 1.456 1.001 2.418 0 .9533-.334 1.7637-1.001 2.431zm-4.238-.598c.494.494 1.101.741 1.82.741s1.326-.247 1.82-.741c.494-.5113.741-1.1223.741-1.833 0-.7193-.247-1.326-.741-1.82-.494-.5027-1.101-.754-1.82-.754s-1.326.2513-1.82.754c-.494.494-.741 1.1007-.741 1.82 0 .7107.247 1.3217.741 1.833zm7.533-5.083v1.079c.398-.7887 1.083-1.183 2.054-1.183v.832c-.624 0-1.123.182-1.495.546-.373.3553-.559.8927-.559 1.612v3.614h-.858v-6.5zm4.283-2.002c0 .1733-.061.3207-.182.442-.122.1213-.269.182-.442.182-.174 0-.321-.0607-.442-.182-.122-.1213-.182-.2687-.182-.442s.06-.3207.182-.442c.121-.1213.268-.182.442-.182.173 0 .32.0607.442.182.121.1213.182.2687.182.442zm-.195 8.502h-.858v-6.5h.858zm4.823-6.656c.971 0 1.747.3423 2.327 1.027.598.676.897 1.4777.897 2.405 0 .0433-.008.1777-.026.403h-5.707c.087.65.364 1.17.832 1.56s1.053.585 1.755.585c.988 0 1.686-.3683 2.093-1.105l.754.442c-.286.468-.68.8363-1.183 1.105-.494.26-1.053.39-1.677.39-1.022 0-1.854-.3207-2.496-.962-.641-.6413-.962-1.456-.962-2.444 0-.9793.317-1.7897.949-2.431.633-.65 1.448-.975 2.444-.975zm0 .832c-.676 0-1.243.1993-1.703.598-.45.3987-.719.923-.806 1.573h4.849c-.095-.6933-.359-1.2263-.793-1.599-.45-.3813-.966-.572-1.547-.572zm5.011 1.027c0 .5027.447.871 1.339 1.105.252.0607.416.104.494.13.078.0173.23.065.455.143.234.0693.395.13.481.182.096.052.226.1343.39.247.165.104.282.2123.351.325.07.104.135.2427.195.416.061.1647.091.3423.091.533 0 .5547-.221 1.0053-.663 1.352-.424.3467-.988.52-1.69.52-.606 0-1.131-.1343-1.573-.403-.442-.2773-.754-.6413-.936-1.092l.728-.429c.122.338.338.6067.65.806.321.1907.698.286 1.131.286.442 0 .802-.0867 1.079-.26.278-.1733.416-.4333.416-.78 0-.5027-.446-.871-1.339-1.105-.251-.0607-.416-.0997-.494-.117-.078-.026-.234-.0737-.468-.143-.225-.078-.385-.143-.481-.195-.086-.052-.212-.13-.377-.234-.164-.1127-.281-.221-.351-.325-.069-.1127-.134-.2513-.195-.416-.06-.1733-.091-.3553-.091-.546 0-.5287.208-.9707.624-1.326.434-.3553.967-.533 1.599-.533.52 0 .98.117 1.378.351.408.234.707.559.897.975l-.715.416c-.242-.6067-.762-.91-1.56-.91-.39 0-.715.091-.975.273s-.39.4333-.39.754zm5.491 3.692h1.04l-.78 2.925h-.78zm9.428-5.395v.832h-1.872v3.939c0 .3553.069.611.208.767.138.1473.346.2253.624.234.277 0 .624-.0087 1.04-.026v.754c-.928.1387-1.617.0737-2.067-.195-.442-.2773-.663-.7887-.663-1.534v-3.939h-1.365v-.832h1.365v-1.56l.858-.26v1.82zm6.483 5.681c-.667.65-1.473.975-2.418.975-.962 0-1.772-.325-2.431-.975-.659-.6587-.988-1.469-.988-2.431s.329-1.768.988-2.418c.659-.6587 1.469-.988 2.431-.988.953 0 1.759.3293 2.418.988.667.65 1.001 1.456 1.001 2.418 0 .9533-.334 1.7637-1.001 2.431zm-4.238-.598c.494.494 1.101.741 1.82.741s1.326-.247 1.82-.741c.494-.5113.741-1.1223.741-1.833 0-.7193-.247-1.326-.741-1.82-.494-.5027-1.101-.754-1.82-.754s-1.326.2513-1.82.754c-.494.494-.741 1.1007-.741 1.82 0 .7107.247 1.3217.741 1.833zm10.159-5.239c.927 0 1.716.3293 2.366.988.659.6587.988 1.4647.988 2.418s-.329 1.7593-.988 2.418c-.65.6587-1.439.988-2.366.988-1.153 0-2.028-.4767-2.626-1.43v3.874h-.858v-9.1h.858v1.274c.598-.9533 1.473-1.43 2.626-1.43zm-1.885 5.239c.494.494 1.101.741 1.82.741s1.326-.247 1.82-.741c.494-.5113.741-1.1223.741-1.833 0-.7193-.247-1.326-.741-1.82-.494-.5027-1.101-.754-1.82-.754s-1.326.2513-1.82.754c-.494.494-.741 1.1007-.741 1.82 0 .7107.247 1.3217.741 1.833zm7.719-7.085c0 .1733-.061.3207-.182.442-.122.1213-.269.182-.442.182-.174 0-.321-.0607-.442-.182-.122-.1213-.182-.2687-.182-.442s.06-.3207.182-.442c.121-.1213.268-.182.442-.182.173 0 .32.0607.442.182.121.1213.182.2687.182.442zm-.195 8.502h-.858v-6.5h.858zm4.849.156c-.979 0-1.794-.325-2.444-.975-.65-.6673-.975-1.4777-.975-2.431 0-.962.325-1.768.975-2.418.65-.6587 1.465-.988 2.444-.988.642 0 1.218.156 1.729.468.512.3033.884.715 1.118 1.235l-.702.403c-.173-.39-.455-.6977-.845-.923-.381-.234-.814-.351-1.3-.351-.719 0-1.326.2513-1.82.754-.494.494-.741 1.1007-.741 1.82 0 .7107.247 1.3217.741 1.833.494.494 1.101.741 1.82.741.477 0 .906-.1127 1.287-.338.39-.2253.694-.5373.91-.936l.715.416c-.268.52-.663.9317-1.183 1.235s-1.096.455-1.729.455zm8.694-.741c0 .1993-.069.3683-.208.507s-.308.208-.507.208-.368-.0693-.507-.208-.208-.3077-.208-.507.069-.3683.208-.507.308-.208.507-.208.368.0693.507.208.208.3077.208.507zm6.246 0c0 .1993-.069.3683-.208.507-.138.1387-.307.208-.507.208-.199 0-.368-.0693-.507-.208-.138-.1387-.208-.3077-.208-.507s.07-.3683.208-.507c.139-.1387.308-.208.507-.208.2 0 .369.0693.507.208.139.1387.208.3077.208.507zm6.246 0c0 .1993-.069.3683-.208.507-.138.1387-.307.208-.507.208-.199 0-.368-.0693-.507-.208-.138-.1387-.208-.3077-.208-.507s.07-.3683.208-.507c.139-.1387.308-.208.507-.208.2 0 .369.0693.507.208.139.1387.208.3077.208.507z"/></g></svg>