<svg width="30" height="30" viewBox="0 0 30 30" fill="none" xmlns="http://www.w3.org/2000/svg">
<path d="M21.985 0H8.01667C2.95 0 0 2.67 0 7.245V22.74C0 27.39 2.95 30 8.01667 30H21.985C27.1333 30 30 27.39 30 22.74V7.245C30 2.67 27.1333 0 21.985 0Z" fill="#777A95"/>
<path fill-rule="evenodd" clip-rule="evenodd" d="M8.80501 6.97504V6.99004C8.15851 6.99004 7.63501 7.51504 7.63501 8.16004C7.63501 8.80504 8.15851 9.33004 8.80501 9.33004H13.2885C13.935 9.33004 14.46 8.80504 14.46 8.14354C14.46 7.50004 13.935 6.97504 13.2885 6.97504H8.80501ZM20.565 16.1101H8.80501C8.15851 16.1101 7.63501 15.5851 7.63501 14.9401C7.63501 14.2951 8.15851 13.7686 8.80501 13.7686H20.565C21.21 13.7686 21.735 14.2951 21.735 14.9401C21.735 15.5851 21.21 16.1101 20.565 16.1101ZM20.565 22.9649H8.805C8.355 23.0249 7.92 22.7999 7.68 22.4249C7.44 22.0349 7.44 21.5399 7.68 21.1649C7.92 20.7749 8.355 20.5649 8.805 20.6099H20.565C21.1635 20.6699 21.615 21.1799 21.615 21.7949C21.615 22.3934 21.1635 22.9049 20.565 22.9649Z" fill="#D9DAE1"/>
</svg>
