<svg width="130" height="155" viewBox="0 0 130 155" fill="none" xmlns="http://www.w3.org/2000/svg">
<rect opacity="0.1" width="130" height="130" rx="40" fill="#A0A2B3"/>
<path opacity="0.4" d="M65.0003 69.0741C76.3913 69.0741 85.6256 59.9539 85.6256 48.7037C85.6256 37.4535 76.3913 28.3333 65.0003 28.3333C53.6093 28.3333 44.375 37.4535 44.375 48.7037C44.375 59.9539 53.6093 69.0741 65.0003 69.0741Z" fill="#A0A2B3"/>
<path d="M97.9642 89.4779C97.9828 89.1879 97.9828 88.8972 97.9642 88.6073C97.8826 87.5357 97.5786 86.4894 97.0691 85.5266C95.0641 81.6088 89.4429 79.834 84.7527 78.8295C81.4063 78.1329 78.0063 77.685 74.5844 77.4901L71.0041 77.2222H69.3929H67.3879H62.5902H60.5852H58.9741L55.3937 77.4901C51.9718 77.685 48.5718 78.1329 45.2255 78.8295C40.5352 79.7001 34.914 81.5083 32.909 85.5266C32.3996 86.4894 32.0956 87.5357 32.014 88.6073C31.9953 88.8972 31.9953 89.1879 32.014 89.4779C31.9968 89.7679 31.9968 90.0585 32.014 90.3485C32.1113 91.4109 32.4274 92.4456 32.9448 93.3957C34.9499 97.3135 40.571 99.0882 45.2613 100.093C48.6138 100.757 52.0113 101.204 55.4295 101.432L59.0099 101.667H59.8692H60.621H69.4287H70.1806H71.0399L74.6202 101.432C78.0385 101.204 81.4359 100.757 84.7885 100.093C89.4787 99.1887 95.0999 97.4139 97.1049 93.3957C97.5982 92.4154 97.9013 91.361 98 90.2815C98.0045 90.0132 97.9926 89.7449 97.9642 89.4779Z" fill="#777A95"/>
<rect x="41.5" y="106.5" width="47" height="47" rx="18.5" fill="#129A7F" stroke="#F6F6F6" stroke-width="3"/>
<path d="M76 137C76 137.53 75.7893 138.039 75.4142 138.414C75.0391 138.789 74.5304 139 74 139H56C55.4696 139 54.9609 138.789 54.5858 138.414C54.2107 138.039 54 137.53 54 137V126C54 125.47 54.2107 124.961 54.5858 124.586C54.9609 124.211 55.4696 124 56 124H60L62 121H68L70 124H74C74.5304 124 75.0391 124.211 75.4142 124.586C75.7893 124.961 76 125.47 76 126V137Z" stroke="white" stroke-width="2" stroke-linecap="round" stroke-linejoin="round"/>
<path d="M65 135C67.2091 135 69 133.209 69 131C69 128.791 67.2091 127 65 127C62.7909 127 61 128.791 61 131C61 133.209 62.7909 135 65 135Z" stroke="white" stroke-width="2" stroke-linecap="round" stroke-linejoin="round"/>
</svg>
